# xmcd
#
# Track frame offsets: 
#        150
#        20625
#        43658
#        83103
#        131109
#
# Disc length: 2147 seconds
#
# Revision: 0
# Processed by: cddbd v1.5.2PL0 Copyright (c) Steve Scherf et al.
# Submitted via: ExactAudioCopy v1.0b3
#
DISCID=3d086105
DTITLE=The Disco Space Funk Band - Journey Through The Night
DYEAR=1979
DGENRE=Funk
TTITLE0=Simple Song
TTITLE1=Randy's Nap
TTITLE2=Summer Love
TTITLE3=Get Up and Get Down
TTITLE4=Journey Through the Night
EXTD=
EXTT0=
EXTT1=
EXTT2=
EXTT3=
EXTT4=
PLAYORDER=
